<svg width="64" height="64" viewBox="0 0 64 64" fill="none" xmlns="http://www.w3.org/2000/svg">
<path d="M43.7115 40.2131L42.1567 41.7586C42.1567 41.7586 38.4615 45.4331 28.3751 35.4037C18.2887 25.3746 21.9839 21.7004 21.9839 21.7004L22.9629 20.727C25.3748 18.3289 25.6021 14.4789 23.4978 11.6683L19.1937 5.91889C16.5894 2.44015 11.5571 1.98062 8.5721 4.94865L3.21454 10.2758C1.73445 11.7475 0.7426 13.6552 0.862886 15.7716C1.1706 21.1858 3.62024 32.8351 17.2894 46.4267C31.785 60.8398 45.3861 61.4126 50.9481 60.8941C52.7074 60.7303 54.2372 59.8343 55.4701 58.6082L60.3191 53.7872C63.5921 50.5326 62.6692 44.9532 58.4814 42.6768L51.9602 39.1317C49.2104 37.637 45.8606 38.076 43.7115 40.2131Z" fill="white"/>
</svg>
