<svg width="63" height="60" viewBox="0 0 63 60" fill="none" xmlns="http://www.w3.org/2000/svg">
<path d="M43.7115 38.2131L42.1567 39.7586C42.1567 39.7586 38.4615 43.4331 28.3751 33.4037C18.2887 23.3746 21.9839 19.7004 21.9839 19.7004L22.9629 18.727C25.3748 16.3289 25.6021 12.4789 23.4978 9.6683L19.1937 3.91889C16.5894 0.440154 11.5571 -0.0193827 8.5721 2.94865L3.21454 8.2758C1.73445 9.74749 0.7426 11.6552 0.862886 13.7716C1.1706 19.1858 3.62024 30.8351 17.2894 44.4267C31.785 58.8398 45.3861 59.4126 50.9481 58.8941C52.7074 58.7303 54.2372 57.8343 55.4701 56.6082L60.3191 51.7872C63.5921 48.5326 62.6692 42.9532 58.4814 40.6768L51.9602 37.1317C49.2104 35.637 45.8606 36.076 43.7115 38.2131Z" fill="#C7080C"/>
</svg>
