<svg width="64" height="54" viewBox="0 0 64 54" fill="none" xmlns="http://www.w3.org/2000/svg">
<path d="M59.1359 1.05867L3.49856 22.5627C-0.256102 23.928 -0.256102 26.3173 2.8159 27L16.8106 31.4373L22.2719 47.8213C22.9546 49.528 22.6132 50.2107 24.3199 50.2107C25.6852 50.2107 26.3679 49.528 27.0506 48.8453C27.3919 48.504 30.4639 45.432 33.8772 42.0187L48.2132 52.6C50.9439 53.9653 52.6506 53.2827 53.3332 50.2107L62.8906 5.496C63.9146 1.74134 61.5252 -0.306662 59.1359 1.05867ZM51.9679 11.2987L25.3439 35.5333L24.3199 46.7973L18.8586 30.4133L50.2612 10.616C51.6266 9.592 52.9919 10.2747 51.9679 11.2987Z" fill="#C7080C"/>
</svg>
