<svg width="64" height="64" viewBox="0 0 64 64" fill="none" xmlns="http://www.w3.org/2000/svg">
<g clip-path="url(#clip0_387_200)">
<path d="M59.1359 6.05867L3.49856 27.5627C-0.256102 28.928 -0.256102 31.3173 2.8159 32L16.8106 36.4373L22.2719 52.8213C22.9546 54.528 22.6132 55.2107 24.3199 55.2107C25.6852 55.2107 26.3679 54.528 27.0506 53.8453C27.3919 53.504 30.4639 50.432 33.8772 47.0187L48.2132 57.6C50.9439 58.9653 52.6506 58.2827 53.3332 55.2107L62.8906 10.496C63.9146 6.74134 61.5252 4.69334 59.1359 6.05867ZM51.9679 16.2987L25.3439 40.5333L24.3199 51.7973L18.8586 35.4133L50.2612 15.616C51.6266 14.592 52.9919 15.2747 51.9679 16.2987Z" fill="white"/>
</g>
<defs>
<clipPath id="clip0_387_200">
<rect width="64" height="64" fill="white"/>
</clipPath>
</defs>
</svg>
